# ProBuilder 4.5.0
# https://unity3d.com/unity/features/worldbuilding/probuilder
# 27/06/2021 00:37:46

mtllib ./Stone.mtl
o Stone

g Stone
v -0.6800207 0.3994871 0.1641115
v -1.002851 0.8241258 -0.1738105
v -0.9224126 0.9777859 -0.1738105
v -0.6849278 0.9994487 -0.08836611
v -0.4563864 0.914362 -0.0029217
v -0.9020846 1.002994 -0.3471861
v -0.556708 1.096301 -0.4549088
v -0.3109397 0.9826704 0.001817375
v -0.08261319 0.8802589 -0.4879027
v -0.04130659 0.9401295 -0.7439513
v 0.0831184 0.4900032 -0.4957901
v -0.08261319 0.9106585 -0.2397579
v -0.02064186 0.2759437 -0.189273
v -0.02064186 0.5200232 -0.1351879
v -0.05162752 0.7205291 -0.09186301
v -0.1308732 0.9410581 -0.04345202
v -0.2718935 0.292077 -0.9815001
v -0.1705266 0.5206043 -0.9815001
v -0.111553 0.7603022 -0.9907501
v -0.5720285 0.6464886 -1.028323
v -0.1275221 0.924915 -0.8609378
v -0.3005833 0.9120899 -0.9948596
v -0.3987018 0.9743499 -0.9897191
v -0.571763 0.9615248 -0.9845786
v -0.02064186 0.0318642 -0.2433581
v -0.2612935 0.0763894 -0.1829445
v -0.5019451 0.09544398 -0.1220477
v -0.1686804 -0.003872693 -0.6132245
v -0.09466115 0.01399575 -0.4282913
v -0.6327859 0.02918 -0.5337961
v -0.2709705 0.02983849 -0.7973623
v -0.3732605 0.06354967 -0.9815001
v -0.5593787 0.1074942 -0.9737886
v -0.7454969 0.1514388 -0.966077
v -0.9045449 0.1584567 -0.8777683
v -1.063593 0.1654746 -0.7894595
v -1.079914 0.08463875 -0.6447297
v -0.7971895 0.0573951 -0.09172529
v -0.9820362 0.3888113 -0.8855531
v -1.006184 0.2556455 0.01444694
v -1.015109 0.3773633 0.007223472
v -1.024034 0.4990811 0
v -0.9759205 0.04685685 -0.1516178
v -0.9910525 0.1889894 -0.1048492
v -1.002958 0.2894228 -0.3018336
v -0.9816504 0.0649492 -0.2573884
v -0.9873801 0.007565022 -0.2906315
v -0.9874254 0.003992394 -0.3953157
v -0.9874706 0.0004197657 -0.5
v -1.012114 0.275003 -0.5102809
v -1.014473 0.5495861 -0.5205618
v -1.030396 0.5243336 -0.2602809
v -0.8556926 1.018958 -0.5205618
v -0.8092598 1.001394 -0.6352809
v -0.7628269 0.9838291 -0.75
v -0.8869865 0.8270277 -0.7913592
v -0.7362431 0.9659343 -0.8797342
v -0.935083 0.7842723 -0.5205618
v -0.95696 0.5153139 -0.75
v -0.8994465 0.4810416 -0.9794382
v -0.85522 0.5979561 -0.9794382
v -0.8109935 0.7148707 -0.9794382
v -0.7517383 0.8040469 -0.9530659
v -0.6885912 0.9102578 -0.9719523

vt -0.6761656 0.40917
vt -1.0065 0.8140241
vt -0.9260818 0.967324
vt -0.6867387 0.9935725
vt -0.456337 0.9132608
vt 0.9780383 -0.161199
vt 0.9592198 -0.3341985
vt 0.6198938 -0.4403628
vt 0.7422276 -0.0752774
vt 0.3678985 0.01496775
vt 0.5090996 0.009181479
vt 0.4924737 0.8809567
vt 0.7450212 0.9398111
vt 0.4887923 0.4879278
vt 0.2449322 0.9116469
vt 0.1902514 0.2760298
vt 0.1362978 0.5201381
vt 0.09523754 0.7211937
vt 0.05246682 0.9430969
vt -0.3108205 0.9815405
vt -0.1318156 0.9371526
vt -0.05367656 0.7140955
vt -0.02367122 0.5113842
vt 0.1339714 -0.4759206
vt 0.13575 -0.2273844
vt 0.1857058 -0.03072094
vt 0.1728346 0.2890375
vt 0.07197122 0.5175943
vt 0.01236975 0.7572809
vt 0.4668175 0.643216
vt 0.0411823 0.9222792
vt 0.2000519 0.9089987
vt 0.2981949 0.9712442
vt 0.4709081 0.9583826
vt 0.8677315 0.9259271
vt 0.9961153 0.7609121
vt 0.9909977 0.5222638
vt 0.09623833 -0.731096
vt 0.4550235 -0.9766599
vt 0.3534304 -0.9825704
vt 0.181416 -0.8483479
vt -0.02488527 0.2645912
vt -0.02609931 0.01779816
vt -0.2653342 0.06604624
vt -0.5045583 0.088894
vt 0.6234888 -0.001730376
vt 0.4338469 0.01509558
vt 0.244205 0.03192153
vt -0.02316307 -0.244581
vt -0.09548543 -0.4280482
vt -0.6330643 -0.5319467
vt -0.2666371 -0.1855205
vt -0.1678078 -0.6115153
vt -0.2724991 -0.7967081
vt -0.3771904 -0.9819008
vt -0.5662642 -0.9756707
vt -0.755338 -0.9694405
vt -0.9144303 -0.8809438
vt -1.073523 -0.7924471
vt -1.083221 -0.643706
vt -0.799217 -0.09121558
vt -0.5080413 -0.124675
vt 0.8890013 0.3858463
vt 0.9797191 0.1627755
vt 0.8126699 0.1555396
vt 0.6456208 0.1483037
vt 0.4596595 0.1043921
vt 0.2736981 0.06048062
vt 0.9980619 0.295495
vt 1.005126 0.06872615
vt 0.8143075 0.03349789
vt -1.005607 0.2573563
vt -1.014691 0.3784661
vt -1.023776 0.4995759
vt -0.7990476 0.05304031
vt -0.979078 0.03929586
vt -0.9931564 0.1839093
vt 0.1955543 0.1069213
vt 0.07548447 0.0400195
vt -0.1161286 0.1323705
vt 0.1900576 0.2258119
vt 0.02675448 -0.09959739
vt -0.07625141 -0.08535486
vt -0.1079175 -0.1438274
vt -0.2108793 -0.1501563
vt -0.3138412 -0.1564853
vt -0.3195123 0.1112243
vt -0.3291996 0.3821739
vt -0.07031126 0.361818
vt 0.1845609 0.3447024
vt -0.9847292 -0.2865184
vt -0.9842387 -0.4952454
vt -0.9844839 -0.3908819
vt -0.9836817 -0.2562776
vt -0.9765005 -0.149745
vt 0.9138414 -0.5073032
vt 0.8664604 -0.6222141
vt 0.8190794 -0.7371249
vt -0.6002347 0.8421234
vt -0.4790256 0.8558
vt -0.6185395 0.6678898
vt -0.7326357 0.824834
vt -0.3578165 0.8694766
vt -0.3435081 0.6258253
vt -0.5652463 0.350528
vt -0.801293 0.3188821
vt -0.8092638 0.4409429
vt -0.8172348 0.5630035
vt -0.8019738 0.6605185
vt -0.8319319 0.774241
vt 0.7406666 -0.9600003
vt 0.6270379 -0.9718331
vt 0.7914943 -0.8670697
vt 0.7974756 0.4778182
vt 0.709462 0.711673
vt 0.7534688 0.5947456
vt 0.5884129 0.9071186
vt 0.6531265 0.800946
vt -0.1789188 0.8515607
vt -0.004718526 0.8282933
vt 0.009778911 0.6646253
vt -0.4395398 -0.09048881
vt -0.5848413 -0.01202378
vt -0.6940601 0.2181578

vn 0.003061388 -0.1044852 0.9945217
vn -0.644078 0.3982833 0.6530957
vn -0.581122 0.6914669 0.4291512
vn -0.1028252 0.845032 0.5247359
vn -0.03711801 0.4771397 0.8780432
vn -0.5018362 0.8649337 0.007069965
vn 0.008629184 0.9993796 0.03414614
vn 0.01225751 0.7584036 0.65167
vn 0.6222426 0.777579 0.09047104
vn 0.7786045 0.6116508 -0.1402081
vn 0.9964776 -0.01618544 -0.08228295
vn 0.8025894 0.5960051 0.0250603
vn 0.8926321 -0.1865059 0.4103942
vn 0.6605578 -0.1115594 0.7424405
vn 0.8368017 0.1131584 0.5356846
vn 0.6573144 0.5529793 0.5120075
vn 0.3397057 -0.160745 -0.9266936
vn 0.6612773 -0.2404222 -0.7105698
vn 0.4584682 0.1429957 -0.8771312
vn -0.0573511 0.005192885 -0.9983405
vn 0.4344467 0.7454817 -0.505483
vn 0.2072767 0.4954039 -0.8435706
vn 0.09089835 0.7714655 -0.6297448
vn -0.1491384 0.408186 -0.9006342
vn 0.5944958 -0.670928 0.4432047
vn 0.03628002 -0.8930839 0.4484248
vn 0.125427 -0.7962897 0.5917692
vn 0.6515811 -0.6838855 -0.3282418
vn 0.3274189 -0.9440754 0.03896933
vn -0.03398503 -0.9978442 -0.05614368
vn 0.2059626 -0.9300639 -0.3042376
vn 0.2489195 -0.6235505 -0.7410964
vn -0.1818129 -0.8173558 -0.5466934
vn -0.2685343 -0.462327 -0.8450699
vn -0.3108131 -0.7662557 -0.5623588
vn -0.7545421 -0.3083258 -0.5793112
vn -0.5191757 -0.7956246 -0.3121508
vn -0.07305383 -0.9108629 0.4061921
vn -0.5118156 -0.2823036 -0.8113873
vn -0.7263036 -0.3177742 0.6095101
vn -0.936657 -0.05623741 0.3457035
vn -0.9253861 0.1010139 0.3653173
vn -0.5837528 -0.7156188 0.3835654
vn -0.9181799 -0.3153395 0.2398056
vn -0.9947721 -0.09607623 0.0346101
vn -0.9176642 -0.3327517 0.2171836
vn -0.5388782 -0.8003442 0.2627916
vn -0.8602622 -0.5090796 0.0280544
vn -0.8513125 -0.5079796 0.1312395
vn -0.9991313 -0.007127787 0.04105848
vn -0.9761207 0.1531222 -0.1540847
vn -0.9997209 0.007494839 -0.02240467
vn -0.7606241 0.5902031 -0.270391
vn -0.6331011 0.7123507 -0.3028852
vn -0.3595492 0.8979074 -0.2539423
vn -0.8479268 0.3917795 -0.3571119
vn -0.6039257 0.661612 -0.4444583
vn -0.9292781 0.3058217 -0.2071601
vn -0.93994 0.2578012 -0.2237214
vn -0.7723681 0.2041528 -0.6014725
vn -0.7053708 0.2318009 -0.6698658
vn -0.3511325 0.3034756 -0.8857813
vn -0.5213912 0.3652983 -0.7711734
vn -0.4390446 0.3358566 -0.8333308

usemtl Stone
f 5/5/5 4/4/4 1/1/1
f 4/4/4 2/2/2 1/1/1
f 3/3/3 2/2/2 4/4/4
f 16/21/16 8/20/8 15/22/15
f 15/22/15 8/20/8 5/5/5
f 15/22/15 1/1/1 14/23/14
f 5/5/5 1/1/1 15/22/15
f 16/26/16 12/25/12 8/10/8
f 8/10/8 12/25/12 7/8/7
f 12/25/12 9/24/9 7/8/7
f 11/14/11 18/37/18 19/36/19
f 11/14/11 19/36/19 10/13/10
f 10/13/10 19/36/19 21/35/21
f 10/38/10 7/8/7 9/24/9
f 7/8/7 10/38/10 23/39/23
f 23/39/23 10/38/10 22/40/22
f 10/38/10 21/41/21 22/40/22
f 13/42/13 26/44/26 25/43/25
f 26/44/26 1/1/1 27/45/27
f 26/44/26 13/42/13 1/1/1
f 14/23/14 1/1/1 13/42/13
f 29/47/29 28/46/28 11/14/11
f 29/47/29 11/14/11 13/16/13
f 25/48/25 29/47/29 13/16/13
f 35/65/35 36/64/36 39/63/39
f 34/66/34 35/65/35 39/63/39
f 34/66/34 39/63/39 20/30/20
f 33/67/33 34/66/34 20/30/20
f 17/27/17 33/67/33 20/30/20
f 17/27/17 32/68/32 33/67/33
f 31/71/31 32/70/32 17/69/17
f 28/46/28 31/71/31 17/69/17
f 17/69/17 11/14/11 28/46/28
f 17/69/17 18/37/18 11/14/11
f 41/73/41 40/72/40 1/1/1
f 42/74/42 41/73/41 1/1/1
f 2/2/2 42/74/42 1/1/1
f 1/1/1 38/75/38 27/45/27
f 44/77/44 43/76/43 38/75/38
f 40/72/40 44/77/44 38/75/38
f 1/1/1 40/72/40 38/75/38
f 47/91/47 48/93/48 30/51/30
f 48/93/48 49/92/49 30/51/30
f 37/60/37 30/51/30 49/92/49
f 30/51/30 38/61/38 47/91/47
f 47/91/47 38/61/38 46/94/46
f 46/94/46 38/61/38 43/95/43
f 7/8/7 55/98/55 54/97/54
f 7/8/7 54/97/54 53/96/53
f 7/8/7 53/96/53 6/7/6
f 57/113/57 24/112/24 64/111/64
f 55/98/55 24/112/24 57/113/57
f 24/112/24 55/98/55 7/8/7
f 7/8/7 23/39/23 24/112/24
f 39/63/39 60/114/60 20/30/20
f 60/114/60 61/116/61 20/30/20
f 20/30/20 61/116/61 62/115/62
f 20/30/20 62/115/62 63/118/63
f 63/118/63 24/34/24 20/30/20
f 63/118/63 64/117/64 24/34/24
f 3/120/3 6/119/6 2/121/2
f 52/89/52 58/104/58 51/88/51
f 2/121/2 52/89/52 42/90/42
f 58/104/58 52/89/52 2/121/2
f 6/119/6 58/104/58 2/121/2
f 53/103/53 58/104/58 6/119/6
f 51/88/51 59/105/59 50/87/50
f 50/87/50 37/122/37 49/86/49
f 50/87/50 36/123/36 37/122/37
f 50/87/50 59/105/59 36/123/36
f 39/124/39 36/123/36 59/105/59
f 60/106/60 39/124/39 59/105/59
f 7/8/7 6/7/6 3/6/3
f 3/6/3 4/9/4 7/8/7
f 7/8/7 4/9/4 5/11/5
f 5/11/5 8/10/8 7/8/7
f 11/14/11 10/13/10 9/12/9
f 9/12/9 12/15/12 11/14/11
f 11/14/11 15/18/15 14/17/14
f 14/17/14 13/16/13 11/14/11
f 15/18/15 11/14/11 12/15/12
f 12/15/12 16/19/16 15/18/15
f 20/30/20 19/29/19 18/28/18
f 18/28/18 17/27/17 20/30/20
f 19/29/19 20/30/20 22/32/22
f 22/32/22 21/31/21 19/29/19
f 22/32/22 20/30/20 24/34/24
f 24/34/24 23/33/23 22/32/22
f 30/51/30 29/50/29 25/49/25
f 25/49/25 26/52/26 30/51/30
f 31/54/31 28/53/28 29/50/29
f 29/50/29 30/51/30 31/54/31
f 32/55/32 31/54/31 30/51/30
f 30/51/30 33/56/33 32/55/32
f 34/57/34 33/56/33 30/51/30
f 30/51/30 35/58/35 34/57/34
f 35/58/35 30/51/30 37/60/37
f 37/60/37 36/59/36 35/58/35
f 30/51/30 26/52/26 27/62/27
f 27/62/27 38/61/38 30/51/30
f 45/80/45 44/79/44 40/78/40
f 40/78/40 41/81/41 45/80/45
f 46/83/46 43/82/43 44/79/44
f 44/79/44 45/80/45 46/83/46
f 48/85/48 47/84/47 46/83/46
f 46/83/46 45/80/45 48/85/48
f 50/87/50 49/86/49 48/85/48
f 48/85/48 45/80/45 50/87/50
f 51/88/51 50/87/50 45/80/45
f 45/80/45 52/89/52 51/88/51
f 42/90/42 52/89/52 45/80/45
f 45/80/45 41/81/41 42/90/42
f 56/101/56 54/100/54 55/99/55
f 55/99/55 57/102/57 56/101/56
f 58/104/58 53/103/53 54/100/54
f 54/100/54 56/101/56 58/104/58
f 56/101/56 59/105/59 51/88/51
f 51/88/51 58/104/58 56/101/56
f 61/107/61 60/106/60 59/105/59
f 59/105/59 56/101/56 61/107/61
f 62/108/62 61/107/61 56/101/56
f 56/101/56 63/109/63 62/108/62
f 64/110/64 63/109/63 56/101/56
f 56/101/56 57/102/57 64/110/64

